<?xml version="1.0" standalone="no"?>
<!DOCTYPE svg PUBLIC "-//W3C//DTD SVG 20010904//EN"
 "http://www.w3.org/TR/2001/REC-SVG-20010904/DTD/svg10.dtd">
<svg version="1.0" xmlns="http://www.w3.org/2000/svg"
 width="32.000000pt" height="32.000000pt" viewBox="0 0 32.000000 32.000000"
 preserveAspectRatio="xMidYMid meet">

<g transform="translate(0.000000,32.000000) scale(0.100000,-0.100000)"
fill="#000000" stroke="none">
<path d="M73 303 c-3 -10 -15 -40 -25 -66 -27 -71 -1 -54 28 18 28 67 27 65
14 65 -6 0 -13 -8 -17 -17z"/>
<path d="M120 285 c0 -24 -5 -35 -15 -35 -18 0 -20 -23 -4 -49 8 -12 9 -23 2
-36 -8 -14 -3 -32 24 -79 49 -87 56 -93 90 -76 46 23 49 24 34 7 -24 -30 6
-18 38 14 l31 31 0 129 0 129 -27 -1 c-16 0 -22 -3 -15 -6 10 -4 10 -8 2 -18
-8 -10 -8 -19 0 -34 10 -20 8 -21 -28 -21 -60 0 -133 43 -80 47 48 4 26 33
-24 33 -25 0 -28 -3 -28 -35z m88 -122 c-4 -34 -28 -43 -28 -10 0 25 7 37 22
37 5 0 8 -12 6 -27z m-58 7 c0 -5 -4 -10 -9 -10 -6 0 -13 5 -16 10 -3 6 1 10
9 10 9 0 16 -4 16 -10z m0 -35 c0 -8 -4 -15 -9 -15 -5 0 -14 7 -21 15 -10 13
-9 15 9 15 12 0 21 -6 21 -15z m135 -13 c-6 -7 -34 11 -29 19 3 5 11 3 19 -4
7 -6 12 -13 10 -15z m-9 -23 c3 -5 -8 -9 -25 -9 -22 0 -29 4 -25 14 5 14 40
11 50 -5z"/>
<path d="M128 23 c-27 -7 -21 -23 7 -23 14 0 25 4 25 9 0 13 -12 18 -32 14z"/>
</g>
</svg>
